<?xml version="1.0" encoding="UTF-8" standalone="no"?>
<!DOCTYPE svg PUBLIC "-//W3C//DTD SVG 1.1//EN"
 "http://www.w3.org/Graphics/SVG/1.1/DTD/svg11.dtd">
<!-- Generated by graphviz version 2.40.1 (20161225.0304)
 -->
<!-- Title: G Pages: 1 -->
<svg width="1059pt" height="515pt"
 viewBox="0.00 0.00 1059.00 515.00" xmlns="http://www.w3.org/2000/svg" xmlns:xlink="http://www.w3.org/1999/xlink">
<g id="graph0" class="graph" transform="scale(1 1) rotate(0) translate(4 511)">
<title>G</title>
<polygon fill="#ffffff" stroke="transparent" points="-4,4 -4,-511 1055,-511 1055,4 -4,4"/>
<g id="clust1" class="cluster">
<title>cluster_root</title>
<g id="a_clust1"><a xlink:title="eventq_index=0&#10;full_system=false&#10;sim_quantum=0&#10;time_sync_enable=false&#10;time_sync_period=100000000000&#10;time_sync_spin_threshold=100000000">
<path fill="#bab6ae" stroke="#000000" d="M20,-8C20,-8 1031,-8 1031,-8 1037,-8 1043,-14 1043,-20 1043,-20 1043,-487 1043,-487 1043,-493 1037,-499 1031,-499 1031,-499 20,-499 20,-499 14,-499 8,-493 8,-487 8,-487 8,-20 8,-20 8,-14 14,-8 20,-8"/>
<text text-anchor="middle" x="525.5" y="-483.8" font-family="Arial" font-size="14.00" fill="#000000">root </text>
<text text-anchor="middle" x="525.5" y="-468.8" font-family="Arial" font-size="14.00" fill="#000000">: Root</text>
</a>
</g>
</g>
<g id="clust2" class="cluster">
<title>cluster_system</title>
<g id="a_clust2"><a xlink:title="boot_osflags=a&#10;cache_line_size=64&#10;eventq_index=0&#10;exit_on_work_items=false&#10;init_param=0&#10;kernel=&#10;kernel_addr_check=true&#10;kernel_extras=&#10;kernel_extras_addrs=&#10;kvm_vm=Null&#10;&#10;oad_addr_mask=18446744073709551615&#10;&#10;oad_offset=0&#10;m5ops_base=4294901760&#10;mem_mode=atomic&#10;mem_ranges=0:536870912&#10;memories=system.mem_ctrls&#10;mmap_using_noreserve=false&#10;multi_thread=false&#10;&#10;um_work_ids=16&#10;&#13;eadfile=&#10;&#13;edirect_paths=system.redirect_paths0 system.redirect_paths1 system.redirect_paths2&#10;symbolfile=&#10;thermal_components=&#10;thermal_model=Null&#10;work_begin_ckpt_count=0&#10;work_begin_cpu_id_exit=&#45;1&#10;work_begin_exit_count=0&#10;work_cpus_ckpt_count=0&#10;work_end_ckpt_count=0&#10;work_end_exit_count=0&#10;work_item_id=&#45;1">
<path fill="#e4e7eb" stroke="#000000" d="M28,-16C28,-16 1023,-16 1023,-16 1029,-16 1035,-22 1035,-28 1035,-28 1035,-441 1035,-441 1035,-447 1029,-453 1023,-453 1023,-453 28,-453 28,-453 22,-453 16,-447 16,-441 16,-441 16,-28 16,-28 16,-22 22,-16 28,-16"/>
<text text-anchor="middle" x="525.5" y="-437.8" font-family="Arial" font-size="14.00" fill="#000000">system </text>
<text text-anchor="middle" x="525.5" y="-422.8" font-family="Arial" font-size="14.00" fill="#000000">: System</text>
</a>
</g>
</g>
<g id="clust3" class="cluster">
<title>cluster_system_membus</title>
<g id="a_clust3"><a xlink:title="clk_domain=system.clk_domain&#10;default_p_state=UNDEFINED&#10;eventq_index=0&#10;forward_latency=4&#10;frontend_latency=3&#10;max_outstanding_snoops=512&#10;max_routing_table_size=512&#10;p_state_clk_gate_bins=20&#10;p_state_clk_gate_max=1000000000000&#10;p_state_clk_gate_min=1000&#10;point_of_coherency=true&#10;point_of_unification=true&#10;power_model=&#10;&#13;esponse_latency=2&#10;snoop_filter=system.membus.snoop_filter&#10;snoop_response_latency=4&#10;system=system&#10;use_default_range=false&#10;width=16">
<path fill="#6f798c" stroke="#000000" d="M341,-231C341,-231 467,-231 467,-231 473,-231 479,-237 479,-243 479,-243 479,-310 479,-310 479,-316 473,-322 467,-322 467,-322 341,-322 341,-322 335,-322 329,-316 329,-310 329,-310 329,-243 329,-243 329,-237 335,-231 341,-231"/>
<text text-anchor="middle" x="404" y="-306.8" font-family="Arial" font-size="14.00" fill="#000000">membus </text>
<text text-anchor="middle" x="404" y="-291.8" font-family="Arial" font-size="14.00" fill="#000000">: SystemXBar</text>
</a>
</g>
</g>
<g id="clust11" class="cluster">
<title>cluster_system_mem_ctrls</title>
<g id="a_clust11"><a xlink:title="IDD0=0.055&#10;IDD02=0.0&#10;IDD2N=0.032&#10;IDD2N2=0.0&#10;IDD2P0=0.0&#10;IDD2P02=0.0&#10;IDD2P1=0.032&#10;IDD2P12=0.0&#10;IDD3N=0.038&#10;IDD3N2=0.0&#10;IDD3P0=0.0&#10;IDD3P02=0.0&#10;IDD3P1=0.038&#10;IDD3P12=0.0&#10;IDD4R=0.157&#10;IDD4R2=0.0&#10;IDD4W=0.125&#10;IDD4W2=0.0&#10;IDD5=0.235&#10;IDD52=0.0&#10;IDD6=0.02&#10;IDD62=0.0&#10;VDD=1.5&#10;VDD2=0.0&#10;activation_limit=4&#10;addr_mapping=RoRaBaCoCh&#10;bank_groups_per_rank=0&#10;banks_per_rank=8&#10;burst_length=8&#10;clk_domain=system.clk_domain&#10;conf_table_reported=true&#10;default_p_state=UNDEFINED&#10;device_bus_width=8&#10;device_rowbuffer_size=1024&#10;device_size=536870912&#10;devices_per_rank=8&#10;dll=true&#10;enable_dram_powerdown=false&#10;eventq_index=0&#10;in_addr_map=true&#10;kvm_map=true&#10;max_accesses_per_row=16&#10;mem_sched_policy=frfcfs&#10;min_writes_per_switch=16&#10;&#10;ull=false&#10;p_state_clk_gate_bins=20&#10;p_state_clk_gate_max=1000000000000&#10;p_state_clk_gate_min=1000&#10;page_policy=open_adaptive&#10;power_model=&#10;qos_masters= &#160;&#160;&#160;&#160;&#160;&#160;&#160;&#160;&#160;&#160;&#160;&#160;&#160;&#160;&#10;qos_policy=Null&#10;qos_priorities=1&#10;qos_priority_escalation=false&#10;qos_q_policy=fifo&#10;qos_syncro_scheduler=false&#10;qos_turnaround_policy=Null&#10;&#13;ange=0:536870912&#10;&#13;anks_per_channel=2&#10;&#13;ead_buffer_size=32&#10;static_backend_latency=10000&#10;static_frontend_latency=10000&#10;tBURST=5000&#10;tCCD_L=0&#10;tCCD_L_WR=0&#10;tCK=1250&#10;tCL=13750&#10;tCS=2500&#10;tRAS=35000&#10;tRCD=13750&#10;tREFI=7800000&#10;tRFC=260000&#10;tRP=13750&#10;tRRD=6000&#10;tRRD_L=0&#10;tRTP=7500&#10;tRTW=2500&#10;tWR=15000&#10;tWTR=7500&#10;tXAW=30000&#10;tXP=6000&#10;tXPDLL=0&#10;tXS=270000&#10;tXSDLL=0&#10;write_buffer_size=64&#10;write_high_thresh_perc=85&#10;write_low_thresh_perc=50">
<path fill="#5e5958" stroke="#000000" d="M36,-40C36,-40 149,-40 149,-40 155,-40 161,-46 161,-52 161,-52 161,-119 161,-119 161,-125 155,-131 149,-131 149,-131 36,-131 36,-131 30,-131 24,-125 24,-119 24,-119 24,-52 24,-52 24,-46 30,-40 36,-40"/>
<text text-anchor="middle" x="92.5" y="-115.8" font-family="Arial" font-size="14.00" fill="#000000">mem_ctrls </text>
<text text-anchor="middle" x="92.5" y="-100.8" font-family="Arial" font-size="14.00" fill="#000000">: DDR3_1600_8x8</text>
</a>
</g>
</g>
<g id="clust14" class="cluster">
<title>cluster_system_cpu</title>
<g id="a_clust14"><a xlink:title="branchPred=Null&#10;checker=Null&#10;clk_domain=system.cpu_clk_domain&#10;cpu_id=0&#10;default_p_state=UNDEFINED&#10;do_checkpoint_insts=true&#10;do_quiesce=true&#10;do_statistics_insts=true&#10;dtb=system.cpu.dtb&#10;eventq_index=0&#10;function_trace=false&#10;function_trace_start=0&#10;interrupts=system.cpu.interrupts&#10;isa=system.cpu.isa&#10;itb=system.cpu.itb&#10;max_insts_all_threads=0&#10;max_insts_any_thread=0&#10;&#10;umThreads=1&#10;p_state_clk_gate_bins=20&#10;p_state_clk_gate_max=1000000000000&#10;p_state_clk_gate_min=1000&#10;power_gating_on_idle=false&#10;power_model=&#10;profile=0&#10;progress_interval=0&#10;pwr_gating_latency=300&#10;simpoint_start_insts=&#10;simulate_data_stalls=false&#10;simulate_inst_stalls=false&#10;socket_id=0&#10;switched_out=false&#10;syscallRetryLatency=10000&#10;system=system&#10;tracer=system.cpu.tracer&#10;wait_for_remote_gdb=false&#10;width=1&#10;workload=system.cpu.workload">
<path fill="#bbc6d9" stroke="#000000" d="M181,-24C181,-24 1015,-24 1015,-24 1021,-24 1027,-30 1027,-36 1027,-36 1027,-211 1027,-211 1027,-217 1021,-223 1015,-223 1015,-223 181,-223 181,-223 175,-223 169,-217 169,-211 169,-211 169,-36 169,-36 169,-30 175,-24 181,-24"/>
<text text-anchor="middle" x="598" y="-207.8" font-family="Arial" font-size="14.00" fill="#000000">cpu </text>
<text text-anchor="middle" x="598" y="-192.8" font-family="Arial" font-size="14.00" fill="#000000">: AtomicSimpleCPU</text>
</a>
</g>
</g>
<g id="clust16" class="cluster">
<title>cluster_system_cpu_dtb</title>
<g id="a_clust16"><a xlink:title="eventq_index=0&#10;size=64&#10;system=system&#10;walker=system.cpu.dtb.walker">
<path fill="#bab6ae" stroke="#000000" d="M748,-32C748,-32 901,-32 901,-32 907,-32 913,-38 913,-44 913,-44 913,-165 913,-165 913,-171 907,-177 901,-177 901,-177 748,-177 748,-177 742,-177 736,-171 736,-165 736,-165 736,-44 736,-44 736,-38 742,-32 748,-32"/>
<text text-anchor="middle" x="824.5" y="-161.8" font-family="Arial" font-size="14.00" fill="#000000">dtb </text>
<text text-anchor="middle" x="824.5" y="-146.8" font-family="Arial" font-size="14.00" fill="#000000">: X86TLB</text>
</a>
</g>
</g>
<g id="clust17" class="cluster">
<title>cluster_system_cpu_dtb_walker</title>
<g id="a_clust17"><a xlink:title="clk_domain=system.cpu_clk_domain&#10;default_p_state=UNDEFINED&#10;eventq_index=0&#10;&#10;um_squash_per_cycle=4&#10;p_state_clk_gate_bins=20&#10;p_state_clk_gate_max=1000000000000&#10;p_state_clk_gate_min=1000&#10;power_model=&#10;system=system">
<path fill="#9f9c95" stroke="#000000" d="M756,-40C756,-40 893,-40 893,-40 899,-40 905,-46 905,-52 905,-52 905,-119 905,-119 905,-125 899,-131 893,-131 893,-131 756,-131 756,-131 750,-131 744,-125 744,-119 744,-119 744,-52 744,-52 744,-46 750,-40 756,-40"/>
<text text-anchor="middle" x="824.5" y="-115.8" font-family="Arial" font-size="14.00" fill="#000000">walker </text>
<text text-anchor="middle" x="824.5" y="-100.8" font-family="Arial" font-size="14.00" fill="#000000">: X86PagetableWalker</text>
</a>
</g>
</g>
<g id="clust18" class="cluster">
<title>cluster_system_cpu_interrupts</title>
<g id="a_clust18"><a xlink:title="clk_domain=system.cpu.interrupts.clk_domain&#10;eventq_index=0&#10;int_latency=1000&#10;pio_latency=100000&#10;system=system">
<path fill="#bab6ae" stroke="#000000" d="M189,-40C189,-40 429,-40 429,-40 435,-40 441,-46 441,-52 441,-52 441,-119 441,-119 441,-125 435,-131 429,-131 429,-131 189,-131 189,-131 183,-131 177,-125 177,-119 177,-119 177,-52 177,-52 177,-46 183,-40 189,-40"/>
<text text-anchor="middle" x="309" y="-115.8" font-family="Arial" font-size="14.00" fill="#000000">interrupts </text>
<text text-anchor="middle" x="309" y="-100.8" font-family="Arial" font-size="14.00" fill="#000000">: X86LocalApic</text>
</a>
</g>
</g>
<g id="clust20" class="cluster">
<title>cluster_system_cpu_itb</title>
<g id="a_clust20"><a xlink:title="eventq_index=0&#10;size=64&#10;system=system&#10;walker=system.cpu.itb.walker">
<path fill="#bab6ae" stroke="#000000" d="M563,-32C563,-32 716,-32 716,-32 722,-32 728,-38 728,-44 728,-44 728,-165 728,-165 728,-171 722,-177 716,-177 716,-177 563,-177 563,-177 557,-177 551,-171 551,-165 551,-165 551,-44 551,-44 551,-38 557,-32 563,-32"/>
<text text-anchor="middle" x="639.5" y="-161.8" font-family="Arial" font-size="14.00" fill="#000000">itb </text>
<text text-anchor="middle" x="639.5" y="-146.8" font-family="Arial" font-size="14.00" fill="#000000">: X86TLB</text>
</a>
</g>
</g>
<g id="clust21" class="cluster">
<title>cluster_system_cpu_itb_walker</title>
<g id="a_clust21"><a xlink:title="clk_domain=system.cpu_clk_domain&#10;default_p_state=UNDEFINED&#10;eventq_index=0&#10;&#10;um_squash_per_cycle=4&#10;p_state_clk_gate_bins=20&#10;p_state_clk_gate_max=1000000000000&#10;p_state_clk_gate_min=1000&#10;power_model=&#10;system=system">
<path fill="#9f9c95" stroke="#000000" d="M571,-40C571,-40 708,-40 708,-40 714,-40 720,-46 720,-52 720,-52 720,-119 720,-119 720,-125 714,-131 708,-131 708,-131 571,-131 571,-131 565,-131 559,-125 559,-119 559,-119 559,-52 559,-52 559,-46 565,-40 571,-40"/>
<text text-anchor="middle" x="639.5" y="-115.8" font-family="Arial" font-size="14.00" fill="#000000">walker </text>
<text text-anchor="middle" x="639.5" y="-100.8" font-family="Arial" font-size="14.00" fill="#000000">: X86PagetableWalker</text>
</a>
</g>
</g>
<!-- system_system_port -->
<g id="node1" class="node">
<title>system_system_port</title>
<path fill="#b6b8bc" stroke="#000000" d="M408,-370.5C408,-370.5 480,-370.5 480,-370.5 486,-370.5 492,-376.5 492,-382.5 492,-382.5 492,-394.5 492,-394.5 492,-400.5 486,-406.5 480,-406.5 480,-406.5 408,-406.5 408,-406.5 402,-406.5 396,-400.5 396,-394.5 396,-394.5 396,-382.5 396,-382.5 396,-376.5 402,-370.5 408,-370.5"/>
<text text-anchor="middle" x="444" y="-384.8" font-family="Arial" font-size="14.00" fill="#000000">system_port</text>
</g>
<!-- system_membus_slave -->
<g id="node3" class="node">
<title>system_membus_slave</title>
<path fill="#586070" stroke="#000000" d="M429,-239.5C429,-239.5 459,-239.5 459,-239.5 465,-239.5 471,-245.5 471,-251.5 471,-251.5 471,-263.5 471,-263.5 471,-269.5 465,-275.5 459,-275.5 459,-275.5 429,-275.5 429,-275.5 423,-275.5 417,-269.5 417,-263.5 417,-263.5 417,-251.5 417,-251.5 417,-245.5 423,-239.5 429,-239.5"/>
<text text-anchor="middle" x="444" y="-253.8" font-family="Arial" font-size="14.00" fill="#000000">slave</text>
</g>
<!-- system_system_port&#45;&gt;system_membus_slave -->
<g id="edge1" class="edge">
<title>system_system_port&#45;&gt;system_membus_slave</title>
<path fill="none" stroke="#000000" d="M444,-370.285C444,-348.3856 444,-311.3861 444,-285.7663"/>
<polygon fill="#000000" stroke="#000000" points="447.5001,-285.5603 444,-275.5603 440.5001,-285.5603 447.5001,-285.5603"/>
</g>
<!-- system_membus_master -->
<g id="node2" class="node">
<title>system_membus_master</title>
<path fill="#586070" stroke="#000000" d="M349.5,-239.5C349.5,-239.5 386.5,-239.5 386.5,-239.5 392.5,-239.5 398.5,-245.5 398.5,-251.5 398.5,-251.5 398.5,-263.5 398.5,-263.5 398.5,-269.5 392.5,-275.5 386.5,-275.5 386.5,-275.5 349.5,-275.5 349.5,-275.5 343.5,-275.5 337.5,-269.5 337.5,-263.5 337.5,-263.5 337.5,-251.5 337.5,-251.5 337.5,-245.5 343.5,-239.5 349.5,-239.5"/>
<text text-anchor="middle" x="368" y="-253.8" font-family="Arial" font-size="14.00" fill="#000000">master</text>
</g>
<!-- system_mem_ctrls_port -->
<g id="node4" class="node">
<title>system_mem_ctrls_port</title>
<path fill="#4b4746" stroke="#000000" d="M111,-48.5C111,-48.5 141,-48.5 141,-48.5 147,-48.5 153,-54.5 153,-60.5 153,-60.5 153,-72.5 153,-72.5 153,-78.5 147,-84.5 141,-84.5 141,-84.5 111,-84.5 111,-84.5 105,-84.5 99,-78.5 99,-72.5 99,-72.5 99,-60.5 99,-60.5 99,-54.5 105,-48.5 111,-48.5"/>
<text text-anchor="middle" x="126" y="-62.8" font-family="Arial" font-size="14.00" fill="#000000">port</text>
</g>
<!-- system_membus_master&#45;&gt;system_mem_ctrls_port -->
<g id="edge4" class="edge">
<title>system_membus_master&#45;&gt;system_mem_ctrls_port</title>
<path fill="none" stroke="#000000" d="M337.1994,-255.914C288.5081,-252.7885 196.8237,-244.1952 173,-223 136.3128,-190.3605 127.7503,-130.3113 126.052,-94.8403"/>
<polygon fill="#000000" stroke="#000000" points="129.5449,-94.5598 125.7219,-84.6787 122.5486,-94.7872 129.5449,-94.5598"/>
</g>
<!-- system_cpu_interrupts_int_slave -->
<g id="node8" class="node">
<title>system_cpu_interrupts_int_slave</title>
<path fill="#94918b" stroke="#000000" d="M269,-48.5C269,-48.5 319,-48.5 319,-48.5 325,-48.5 331,-54.5 331,-60.5 331,-60.5 331,-72.5 331,-72.5 331,-78.5 325,-84.5 319,-84.5 319,-84.5 269,-84.5 269,-84.5 263,-84.5 257,-78.5 257,-72.5 257,-72.5 257,-60.5 257,-60.5 257,-54.5 263,-48.5 269,-48.5"/>
<text text-anchor="middle" x="294" y="-62.8" font-family="Arial" font-size="14.00" fill="#000000">int_slave</text>
</g>
<!-- system_membus_master&#45;&gt;system_cpu_interrupts_int_slave -->
<g id="edge3" class="edge">
<title>system_membus_master&#45;&gt;system_cpu_interrupts_int_slave</title>
<path fill="none" stroke="#000000" d="M351.1475,-239.4738C347.0649,-234.4222 343.0142,-228.736 340,-223 317.9861,-181.1073 305.1112,-127.221 298.8243,-94.8502"/>
<polygon fill="#000000" stroke="#000000" points="302.2141,-93.935 296.9411,-84.7456 295.3326,-95.2176 302.2141,-93.935"/>
</g>
<!-- system_cpu_interrupts_pio -->
<g id="node10" class="node">
<title>system_cpu_interrupts_pio</title>
<path fill="#94918b" stroke="#000000" d="M197,-48.5C197,-48.5 227,-48.5 227,-48.5 233,-48.5 239,-54.5 239,-60.5 239,-60.5 239,-72.5 239,-72.5 239,-78.5 233,-84.5 227,-84.5 227,-84.5 197,-84.5 197,-84.5 191,-84.5 185,-78.5 185,-72.5 185,-72.5 185,-60.5 185,-60.5 185,-54.5 191,-48.5 197,-48.5"/>
<text text-anchor="middle" x="212" y="-62.8" font-family="Arial" font-size="14.00" fill="#000000">pio</text>
</g>
<!-- system_membus_master&#45;&gt;system_cpu_interrupts_pio -->
<g id="edge2" class="edge">
<title>system_membus_master&#45;&gt;system_cpu_interrupts_pio</title>
<path fill="none" stroke="#000000" d="M337.3821,-252.3347C306.0356,-246.4328 260.2261,-235.9029 248,-223 215.1236,-188.3037 210.136,-129.8885 210.4279,-95.0855"/>
<polygon fill="#000000" stroke="#000000" points="213.9368,-94.7572 210.6796,-84.6755 206.9388,-94.588 213.9368,-94.7572"/>
</g>
<!-- system_cpu_icache_port -->
<g id="node5" class="node">
<title>system_cpu_icache_port</title>
<path fill="#959ead" stroke="#000000" d="M463,-48.5C463,-48.5 531,-48.5 531,-48.5 537,-48.5 543,-54.5 543,-60.5 543,-60.5 543,-72.5 543,-72.5 543,-78.5 537,-84.5 531,-84.5 531,-84.5 463,-84.5 463,-84.5 457,-84.5 451,-78.5 451,-72.5 451,-72.5 451,-60.5 451,-60.5 451,-54.5 457,-48.5 463,-48.5"/>
<text text-anchor="middle" x="497" y="-62.8" font-family="Arial" font-size="14.00" fill="#000000">icache_port</text>
</g>
<!-- system_membus_slave&#45;&gt;system_cpu_icache_port -->
<g id="edge5" class="edge">
<title>system_membus_slave&#45;&gt;system_cpu_icache_port</title>
<path fill="none" stroke="#000000" d="M451.8129,-229.344C462.8367,-189.6169 482.6457,-118.2297 491.9335,-84.7584"/>
<polygon fill="#000000" stroke="#000000" points="448.3832,-228.6143 449.0819,-239.1861 455.1283,-230.4861 448.3832,-228.6143"/>
</g>
<!-- system_cpu_dcache_port -->
<g id="node6" class="node">
<title>system_cpu_dcache_port</title>
<path fill="#959ead" stroke="#000000" d="M933,-48.5C933,-48.5 1007,-48.5 1007,-48.5 1013,-48.5 1019,-54.5 1019,-60.5 1019,-60.5 1019,-72.5 1019,-72.5 1019,-78.5 1013,-84.5 1007,-84.5 1007,-84.5 933,-84.5 933,-84.5 927,-84.5 921,-78.5 921,-72.5 921,-72.5 921,-60.5 921,-60.5 921,-54.5 927,-48.5 933,-48.5"/>
<text text-anchor="middle" x="970" y="-62.8" font-family="Arial" font-size="14.00" fill="#000000">dcache_port</text>
</g>
<!-- system_membus_slave&#45;&gt;system_cpu_dcache_port -->
<g id="edge6" class="edge">
<title>system_membus_slave&#45;&gt;system_cpu_dcache_port</title>
<path fill="none" stroke="#000000" d="M481.3592,-256.9887C585.7195,-255.2485 874.9373,-248.1814 909,-223 954.0224,-189.7165 965.8237,-118.327 968.9104,-84.7125"/>
<polygon fill="#000000" stroke="#000000" points="481.2216,-253.4904 471.2788,-257.1497 481.3335,-260.4895 481.2216,-253.4904"/>
</g>
<!-- system_cpu_dtb_walker_port -->
<g id="node7" class="node">
<title>system_cpu_dtb_walker_port</title>
<path fill="#7f7c77" stroke="#000000" d="M764,-48.5C764,-48.5 794,-48.5 794,-48.5 800,-48.5 806,-54.5 806,-60.5 806,-60.5 806,-72.5 806,-72.5 806,-78.5 800,-84.5 794,-84.5 794,-84.5 764,-84.5 764,-84.5 758,-84.5 752,-78.5 752,-72.5 752,-72.5 752,-60.5 752,-60.5 752,-54.5 758,-48.5 764,-48.5"/>
<text text-anchor="middle" x="779" y="-62.8" font-family="Arial" font-size="14.00" fill="#000000">port</text>
</g>
<!-- system_membus_slave&#45;&gt;system_cpu_dtb_walker_port -->
<g id="edge8" class="edge">
<title>system_membus_slave&#45;&gt;system_cpu_dtb_walker_port</title>
<path fill="none" stroke="#000000" d="M481.486,-255.07C553.4348,-250.0916 705.4459,-237.9341 724,-223 766.9625,-188.4197 776.4256,-118.0014 778.4669,-84.7124"/>
<polygon fill="#000000" stroke="#000000" points="480.8065,-251.6081 471.0674,-255.7793 481.2821,-258.5919 480.8065,-251.6081"/>
</g>
<!-- system_cpu_interrupts_int_master -->
<g id="node9" class="node">
<title>system_cpu_interrupts_int_master</title>
<path fill="#94918b" stroke="#000000" d="M361,-48.5C361,-48.5 421,-48.5 421,-48.5 427,-48.5 433,-54.5 433,-60.5 433,-60.5 433,-72.5 433,-72.5 433,-78.5 427,-84.5 421,-84.5 421,-84.5 361,-84.5 361,-84.5 355,-84.5 349,-78.5 349,-72.5 349,-72.5 349,-60.5 349,-60.5 349,-54.5 355,-48.5 361,-48.5"/>
<text text-anchor="middle" x="391" y="-62.8" font-family="Arial" font-size="14.00" fill="#000000">int_master</text>
</g>
<!-- system_membus_slave&#45;&gt;system_cpu_interrupts_int_master -->
<g id="edge9" class="edge">
<title>system_membus_slave&#45;&gt;system_cpu_interrupts_int_master</title>
<path fill="none" stroke="#000000" d="M436.1871,-229.344C425.1633,-189.6169 405.3543,-118.2297 396.0665,-84.7584"/>
<polygon fill="#000000" stroke="#000000" points="432.8717,-230.4861 438.9181,-239.1861 439.6168,-228.6143 432.8717,-230.4861"/>
</g>
<!-- system_cpu_itb_walker_port -->
<g id="node11" class="node">
<title>system_cpu_itb_walker_port</title>
<path fill="#7f7c77" stroke="#000000" d="M579,-48.5C579,-48.5 609,-48.5 609,-48.5 615,-48.5 621,-54.5 621,-60.5 621,-60.5 621,-72.5 621,-72.5 621,-78.5 615,-84.5 609,-84.5 609,-84.5 579,-84.5 579,-84.5 573,-84.5 567,-78.5 567,-72.5 567,-72.5 567,-60.5 567,-60.5 567,-54.5 573,-48.5 579,-48.5"/>
<text text-anchor="middle" x="594" y="-62.8" font-family="Arial" font-size="14.00" fill="#000000">port</text>
</g>
<!-- system_membus_slave&#45;&gt;system_cpu_itb_walker_port -->
<g id="edge7" class="edge">
<title>system_membus_slave&#45;&gt;system_cpu_itb_walker_port</title>
<path fill="none" stroke="#000000" d="M481.0489,-251.0981C511.685,-245.0484 551.8983,-235.1077 563,-223 598.5662,-184.2112 598.4149,-116.7927 595.9729,-84.6082"/>
<polygon fill="#000000" stroke="#000000" points="480.25,-247.6873 471.0823,-252.9981 481.5609,-254.5635 480.25,-247.6873"/>
</g>
</g>
</svg>
