<?xml version="1.0" encoding="UTF-8" standalone="no"?>
<!DOCTYPE svg PUBLIC "-//W3C//DTD SVG 1.1//EN"
 "http://www.w3.org/Graphics/SVG/1.1/DTD/svg11.dtd">
<!-- Generated by graphviz version 2.40.1 (20161225.0304)
 -->
<!-- Title: G Pages: 1 -->
<svg width="1131pt" height="638pt"
 viewBox="0.00 0.00 1131.00 638.00" xmlns="http://www.w3.org/2000/svg" xmlns:xlink="http://www.w3.org/1999/xlink">
<g id="graph0" class="graph" transform="scale(1 1) rotate(0) translate(4 634)">
<title>G</title>
<polygon fill="#ffffff" stroke="transparent" points="-4,4 -4,-634 1127,-634 1127,4 -4,4"/>
<g id="clust1" class="cluster">
<title>cluster_root</title>
<g id="a_clust1"><a xlink:title="eventq_index=0&#10;full_system=false&#10;sim_quantum=0&#10;time_sync_enable=false&#10;time_sync_period=100000000000&#10;time_sync_spin_threshold=100000000">
<path fill="#bab6ae" stroke="#000000" d="M20,-8C20,-8 1103,-8 1103,-8 1109,-8 1115,-14 1115,-20 1115,-20 1115,-610 1115,-610 1115,-616 1109,-622 1103,-622 1103,-622 20,-622 20,-622 14,-622 8,-616 8,-610 8,-610 8,-20 8,-20 8,-14 14,-8 20,-8"/>
<text text-anchor="middle" x="561.5" y="-606.8" font-family="Arial" font-size="14.00" fill="#000000">root </text>
<text text-anchor="middle" x="561.5" y="-591.8" font-family="Arial" font-size="14.00" fill="#000000">: Root</text>
</a>
</g>
</g>
<g id="clust2" class="cluster">
<title>cluster_system</title>
<g id="a_clust2"><a xlink:title="boot_osflags=a&#10;cache_line_size=64&#10;eventq_index=0&#10;exit_on_work_items=false&#10;init_param=0&#10;kernel=&#10;kernel_addr_check=true&#10;kernel_extras=&#10;kernel_extras_addrs=&#10;kvm_vm=Null&#10;&#10;oad_addr_mask=18446744073709551615&#10;&#10;oad_offset=0&#10;m5ops_base=4294901760&#10;mem_mode=timing&#10;mem_ranges=0:536870912&#10;memories=system.mem_ctrls&#10;mmap_using_noreserve=false&#10;multi_thread=false&#10;&#10;um_work_ids=16&#10;&#13;eadfile=&#10;&#13;edirect_paths=system.redirect_paths0 system.redirect_paths1 system.redirect_paths2&#10;symbolfile=&#10;thermal_components=&#10;thermal_model=Null&#10;work_begin_ckpt_count=0&#10;work_begin_cpu_id_exit=&#45;1&#10;work_begin_exit_count=0&#10;work_cpus_ckpt_count=0&#10;work_end_ckpt_count=0&#10;work_end_exit_count=0&#10;work_item_id=&#45;1">
<path fill="#e4e7eb" stroke="#000000" d="M28,-16C28,-16 1095,-16 1095,-16 1101,-16 1107,-22 1107,-28 1107,-28 1107,-564 1107,-564 1107,-570 1101,-576 1095,-576 1095,-576 28,-576 28,-576 22,-576 16,-570 16,-564 16,-564 16,-28 16,-28 16,-22 22,-16 28,-16"/>
<text text-anchor="middle" x="561.5" y="-560.8" font-family="Arial" font-size="14.00" fill="#000000">system </text>
<text text-anchor="middle" x="561.5" y="-545.8" font-family="Arial" font-size="14.00" fill="#000000">: System</text>
</a>
</g>
</g>
<g id="clust3" class="cluster">
<title>cluster_system_membus</title>
<g id="a_clust3"><a xlink:title="clk_domain=system.clk_domain&#10;default_p_state=UNDEFINED&#10;eventq_index=0&#10;forward_latency=4&#10;frontend_latency=3&#10;max_outstanding_snoops=512&#10;max_routing_table_size=512&#10;p_state_clk_gate_bins=20&#10;p_state_clk_gate_max=1000000000000&#10;p_state_clk_gate_min=1000&#10;point_of_coherency=true&#10;point_of_unification=true&#10;power_model=&#10;&#13;esponse_latency=2&#10;snoop_filter=system.membus.snoop_filter&#10;snoop_response_latency=4&#10;system=system&#10;use_default_range=false&#10;width=16">
<path fill="#6f798c" stroke="#000000" d="M813,-354C813,-354 939,-354 939,-354 945,-354 951,-360 951,-366 951,-366 951,-433 951,-433 951,-439 945,-445 939,-445 939,-445 813,-445 813,-445 807,-445 801,-439 801,-433 801,-433 801,-366 801,-366 801,-360 807,-354 813,-354"/>
<text text-anchor="middle" x="876" y="-429.8" font-family="Arial" font-size="14.00" fill="#000000">membus </text>
<text text-anchor="middle" x="876" y="-414.8" font-family="Arial" font-size="14.00" fill="#000000">: SystemXBar</text>
</a>
</g>
</g>
<g id="clust11" class="cluster">
<title>cluster_system_mem_ctrls</title>
<g id="a_clust11"><a xlink:title="IDD0=0.055&#10;IDD02=0.0&#10;IDD2N=0.032&#10;IDD2N2=0.0&#10;IDD2P0=0.0&#10;IDD2P02=0.0&#10;IDD2P1=0.032&#10;IDD2P12=0.0&#10;IDD3N=0.038&#10;IDD3N2=0.0&#10;IDD3P0=0.0&#10;IDD3P02=0.0&#10;IDD3P1=0.038&#10;IDD3P12=0.0&#10;IDD4R=0.157&#10;IDD4R2=0.0&#10;IDD4W=0.125&#10;IDD4W2=0.0&#10;IDD5=0.235&#10;IDD52=0.0&#10;IDD6=0.02&#10;IDD62=0.0&#10;VDD=1.5&#10;VDD2=0.0&#10;activation_limit=4&#10;addr_mapping=RoRaBaCoCh&#10;bank_groups_per_rank=0&#10;banks_per_rank=8&#10;burst_length=8&#10;clk_domain=system.clk_domain&#10;conf_table_reported=true&#10;default_p_state=UNDEFINED&#10;device_bus_width=8&#10;device_rowbuffer_size=1024&#10;device_size=536870912&#10;devices_per_rank=8&#10;dll=true&#10;enable_dram_powerdown=false&#10;eventq_index=0&#10;in_addr_map=true&#10;kvm_map=true&#10;max_accesses_per_row=16&#10;mem_sched_policy=frfcfs&#10;min_writes_per_switch=16&#10;&#10;ull=false&#10;p_state_clk_gate_bins=20&#10;p_state_clk_gate_max=1000000000000&#10;p_state_clk_gate_min=1000&#10;page_policy=open_adaptive&#10;power_model=&#10;qos_masters= &#160;&#160;&#160;&#160;&#160;&#160;&#160;&#160;&#160;&#160;&#160;&#160;&#160;&#160;&#10;qos_policy=Null&#10;qos_priorities=1&#10;qos_priority_escalation=false&#10;qos_q_policy=fifo&#10;qos_syncro_scheduler=false&#10;qos_turnaround_policy=Null&#10;&#13;ange=0:536870912&#10;&#13;anks_per_channel=2&#10;&#13;ead_buffer_size=32&#10;static_backend_latency=10000&#10;static_frontend_latency=10000&#10;tBURST=5000&#10;tCCD_L=0&#10;tCCD_L_WR=0&#10;tCK=1250&#10;tCL=13750&#10;tCS=2500&#10;tRAS=35000&#10;tRCD=13750&#10;tREFI=7800000&#10;tRFC=260000&#10;tRP=13750&#10;tRRD=6000&#10;tRRD_L=0&#10;tRTP=7500&#10;tRTW=2500&#10;tWR=15000&#10;tWTR=7500&#10;tXAW=30000&#10;tXP=6000&#10;tXPDLL=0&#10;tXS=270000&#10;tXSDLL=0&#10;write_buffer_size=64&#10;write_high_thresh_perc=85&#10;write_low_thresh_perc=50">
<path fill="#5e5958" stroke="#000000" d="M36,-163C36,-163 149,-163 149,-163 155,-163 161,-169 161,-175 161,-175 161,-242 161,-242 161,-248 155,-254 149,-254 149,-254 36,-254 36,-254 30,-254 24,-248 24,-242 24,-242 24,-175 24,-175 24,-169 30,-163 36,-163"/>
<text text-anchor="middle" x="92.5" y="-238.8" font-family="Arial" font-size="14.00" fill="#000000">mem_ctrls </text>
<text text-anchor="middle" x="92.5" y="-223.8" font-family="Arial" font-size="14.00" fill="#000000">: DDR3_1600_8x8</text>
</a>
</g>
</g>
<g id="clust14" class="cluster">
<title>cluster_system_cpu</title>
<g id="a_clust14"><a xlink:title="LFSTSize=1024&#10;LQEntries=32&#10;LSQCheckLoads=true&#10;LSQDepCheckShift=4&#10;SQEntries=32&#10;SSITSize=1024&#10;activity=0&#10;backComSize=5&#10;branchPred=system.cpu.branchPred&#10;cacheLoadPorts=200&#10;cacheStorePorts=200&#10;checker=Null&#10;clk_domain=system.cpu_clk_domain&#10;commitToDecodeDelay=1&#10;commitToFetchDelay=1&#10;commitToIEWDelay=1&#10;commitToRenameDelay=1&#10;commitWidth=8&#10;cpu_id=0&#10;decodeToFetchDelay=1&#10;decodeToRenameDelay=1&#10;decodeWidth=8&#10;default_p_state=UNDEFINED&#10;dispatchWidth=8&#10;do_checkpoint_insts=true&#10;do_quiesce=true&#10;do_statistics_insts=true&#10;dtb=system.cpu.dtb&#10;eventq_index=0&#10;fetchBufferSize=64&#10;fetchQueueSize=32&#10;fetchToDecodeDelay=1&#10;fetchTrapLatency=1&#10;fetchWidth=8&#10;forwardComSize=5&#10;fuPool=system.cpu.fuPool&#10;function_trace=false&#10;function_trace_start=0&#10;iewToCommitDelay=1&#10;iewToDecodeDelay=1&#10;iewToFetchDelay=1&#10;iewToRenameDelay=1&#10;interrupts=system.cpu.interrupts&#10;isa=system.cpu.isa&#10;issueToExecuteDelay=1&#10;issueWidth=8&#10;itb=system.cpu.itb&#10;max_insts_all_threads=0&#10;max_insts_any_thread=0&#10;&#10;eedsTSO=true&#10;&#10;umIQEntries=64&#10;&#10;umPhysCCRegs=1280&#10;&#10;umPhysFloatRegs=256&#10;&#10;umPhysIntRegs=256&#10;&#10;umPhysVecPredRegs=32&#10;&#10;umPhysVecRegs=256&#10;&#10;umROBEntries=192&#10;&#10;umRobs=1&#10;&#10;umThreads=1&#10;p_state_clk_gate_bins=20&#10;p_state_clk_gate_max=1000000000000&#10;p_state_clk_gate_min=1000&#10;power_gating_on_idle=false&#10;power_model=&#10;profile=0&#10;progress_interval=0&#10;pwr_gating_latency=300&#10;&#13;enameToDecodeDelay=1&#10;&#13;enameToFetchDelay=1&#10;&#13;enameToIEWDelay=2&#10;&#13;enameToROBDelay=1&#10;&#13;enameWidth=8&#10;simpoint_start_insts=&#10;smtCommitPolicy=RoundRobin&#10;smtFetchPolicy=SingleThread&#10;smtIQPolicy=Partitioned&#10;smtIQThreshold=100&#10;smtLSQPolicy=Partitioned&#10;smtLSQThreshold=100&#10;smtNumFetchingThreads=1&#10;smtROBPolicy=Partitioned&#10;smtROBThreshold=100&#10;socket_id=0&#10;squashWidth=8&#10;store_set_clear_period=250000&#10;switched_out=false&#10;syscallRetryLatency=10000&#10;system=system&#10;tracer=system.cpu.tracer&#10;trapLatency=13&#10;wait_for_remote_gdb=false&#10;wbWidth=8&#10;workload=system.cpu.workload">
<path fill="#bbc6d9" stroke="#000000" d="M181,-24C181,-24 1025,-24 1025,-24 1031,-24 1037,-30 1037,-36 1037,-36 1037,-334 1037,-334 1037,-340 1031,-346 1025,-346 1025,-346 181,-346 181,-346 175,-346 169,-340 169,-334 169,-334 169,-36 169,-36 169,-30 175,-24 181,-24"/>
<text text-anchor="middle" x="603" y="-330.8" font-family="Arial" font-size="14.00" fill="#000000">cpu </text>
<text text-anchor="middle" x="603" y="-315.8" font-family="Arial" font-size="14.00" fill="#000000">: DerivO3CPU</text>
</a>
</g>
</g>
<g id="clust74" class="cluster">
<title>cluster_system_cpu_dtb</title>
<g id="a_clust74"><a xlink:title="eventq_index=0&#10;size=64&#10;system=system&#10;walker=system.cpu.dtb.walker">
<path fill="#bab6ae" stroke="#000000" d="M864,-155C864,-155 1017,-155 1017,-155 1023,-155 1029,-161 1029,-167 1029,-167 1029,-288 1029,-288 1029,-294 1023,-300 1017,-300 1017,-300 864,-300 864,-300 858,-300 852,-294 852,-288 852,-288 852,-167 852,-167 852,-161 858,-155 864,-155"/>
<text text-anchor="middle" x="940.5" y="-284.8" font-family="Arial" font-size="14.00" fill="#000000">dtb </text>
<text text-anchor="middle" x="940.5" y="-269.8" font-family="Arial" font-size="14.00" fill="#000000">: X86TLB</text>
</a>
</g>
</g>
<g id="clust75" class="cluster">
<title>cluster_system_cpu_dtb_walker</title>
<g id="a_clust75"><a xlink:title="clk_domain=system.cpu_clk_domain&#10;default_p_state=UNDEFINED&#10;eventq_index=0&#10;&#10;um_squash_per_cycle=4&#10;p_state_clk_gate_bins=20&#10;p_state_clk_gate_max=1000000000000&#10;p_state_clk_gate_min=1000&#10;power_model=&#10;system=system">
<path fill="#9f9c95" stroke="#000000" d="M872,-163C872,-163 1009,-163 1009,-163 1015,-163 1021,-169 1021,-175 1021,-175 1021,-242 1021,-242 1021,-248 1015,-254 1009,-254 1009,-254 872,-254 872,-254 866,-254 860,-248 860,-242 860,-242 860,-175 860,-175 860,-169 866,-163 872,-163"/>
<text text-anchor="middle" x="940.5" y="-238.8" font-family="Arial" font-size="14.00" fill="#000000">walker </text>
<text text-anchor="middle" x="940.5" y="-223.8" font-family="Arial" font-size="14.00" fill="#000000">: X86PagetableWalker</text>
</a>
</g>
</g>
<g id="clust76" class="cluster">
<title>cluster_system_cpu_interrupts</title>
<g id="a_clust76"><a xlink:title="clk_domain=system.cpu.interrupts.clk_domain&#10;eventq_index=0&#10;int_latency=1000&#10;pio_latency=100000&#10;system=system">
<path fill="#bab6ae" stroke="#000000" d="M592,-163C592,-163 832,-163 832,-163 838,-163 844,-169 844,-175 844,-175 844,-242 844,-242 844,-248 838,-254 832,-254 832,-254 592,-254 592,-254 586,-254 580,-248 580,-242 580,-242 580,-175 580,-175 580,-169 586,-163 592,-163"/>
<text text-anchor="middle" x="712" y="-238.8" font-family="Arial" font-size="14.00" fill="#000000">interrupts </text>
<text text-anchor="middle" x="712" y="-223.8" font-family="Arial" font-size="14.00" fill="#000000">: X86LocalApic</text>
</a>
</g>
</g>
<g id="clust78" class="cluster">
<title>cluster_system_cpu_itb_walker_cache</title>
<g id="a_clust78"><a xlink:title="addr_ranges=0:18446744073709551615&#10;assoc=2&#10;clk_domain=system.cpu_clk_domain&#10;clusivity=mostly_incl&#10;compressor=Null&#10;data_latency=2&#10;default_p_state=UNDEFINED&#10;demand_mshr_reserve=1&#10;eventq_index=0&#10;is_read_only=false&#10;max_miss_count=0&#10;mshrs=10&#10;p_state_clk_gate_bins=20&#10;p_state_clk_gate_max=1000000000000&#10;p_state_clk_gate_min=1000&#10;power_model=&#10;prefetch_on_access=false&#10;prefetcher=Null&#10;&#13;eplacement_policy=system.cpu.itb_walker_cache.replacement_policy&#10;&#13;esponse_latency=2&#10;sequential_access=false&#10;size=1024&#10;system=system&#10;tag_latency=2&#10;tags=system.cpu.itb_walker_cache.tags&#10;tgts_per_mshr=12&#10;warmup_percentage=0&#10;write_allocator=Null&#10;write_buffers=8&#10;writeback_clean=false">
<path fill="#bab6ae" stroke="#000000" d="M241,-32C241,-32 411,-32 411,-32 417,-32 423,-38 423,-44 423,-44 423,-111 423,-111 423,-117 417,-123 411,-123 411,-123 241,-123 241,-123 235,-123 229,-117 229,-111 229,-111 229,-44 229,-44 229,-38 235,-32 241,-32"/>
<text text-anchor="middle" x="326" y="-107.8" font-family="Arial" font-size="14.00" fill="#000000">itb_walker_cache </text>
<text text-anchor="middle" x="326" y="-92.8" font-family="Arial" font-size="14.00" fill="#000000">: PageTableWalkerCache</text>
</a>
</g>
</g>
<g id="clust82" class="cluster">
<title>cluster_system_cpu_itb</title>
<g id="a_clust82"><a xlink:title="eventq_index=0&#10;size=64&#10;system=system&#10;walker=system.cpu.itb.walker">
<path fill="#bab6ae" stroke="#000000" d="M189,-155C189,-155 342,-155 342,-155 348,-155 354,-161 354,-167 354,-167 354,-288 354,-288 354,-294 348,-300 342,-300 342,-300 189,-300 189,-300 183,-300 177,-294 177,-288 177,-288 177,-167 177,-167 177,-161 183,-155 189,-155"/>
<text text-anchor="middle" x="265.5" y="-284.8" font-family="Arial" font-size="14.00" fill="#000000">itb </text>
<text text-anchor="middle" x="265.5" y="-269.8" font-family="Arial" font-size="14.00" fill="#000000">: X86TLB</text>
</a>
</g>
</g>
<g id="clust83" class="cluster">
<title>cluster_system_cpu_itb_walker</title>
<g id="a_clust83"><a xlink:title="clk_domain=system.cpu_clk_domain&#10;default_p_state=UNDEFINED&#10;eventq_index=0&#10;&#10;um_squash_per_cycle=4&#10;p_state_clk_gate_bins=20&#10;p_state_clk_gate_max=1000000000000&#10;p_state_clk_gate_min=1000&#10;power_model=&#10;system=system">
<path fill="#9f9c95" stroke="#000000" d="M197,-163C197,-163 334,-163 334,-163 340,-163 346,-169 346,-175 346,-175 346,-242 346,-242 346,-248 340,-254 334,-254 334,-254 197,-254 197,-254 191,-254 185,-248 185,-242 185,-242 185,-175 185,-175 185,-169 191,-163 197,-163"/>
<text text-anchor="middle" x="265.5" y="-238.8" font-family="Arial" font-size="14.00" fill="#000000">walker </text>
<text text-anchor="middle" x="265.5" y="-223.8" font-family="Arial" font-size="14.00" fill="#000000">: X86PagetableWalker</text>
</a>
</g>
</g>
<g id="clust84" class="cluster">
<title>cluster_system_cpu_dtb_walker_cache</title>
<g id="a_clust84"><a xlink:title="addr_ranges=0:18446744073709551615&#10;assoc=2&#10;clk_domain=system.cpu_clk_domain&#10;clusivity=mostly_incl&#10;compressor=Null&#10;data_latency=2&#10;default_p_state=UNDEFINED&#10;demand_mshr_reserve=1&#10;eventq_index=0&#10;is_read_only=false&#10;max_miss_count=0&#10;mshrs=10&#10;p_state_clk_gate_bins=20&#10;p_state_clk_gate_max=1000000000000&#10;p_state_clk_gate_min=1000&#10;power_model=&#10;prefetch_on_access=false&#10;prefetcher=Null&#10;&#13;eplacement_policy=system.cpu.dtb_walker_cache.replacement_policy&#10;&#13;esponse_latency=2&#10;sequential_access=false&#10;size=1024&#10;system=system&#10;tag_latency=2&#10;tags=system.cpu.dtb_walker_cache.tags&#10;tgts_per_mshr=12&#10;warmup_percentage=0&#10;write_allocator=Null&#10;write_buffers=8&#10;writeback_clean=false">
<path fill="#bab6ae" stroke="#000000" d="M443,-32C443,-32 613,-32 613,-32 619,-32 625,-38 625,-44 625,-44 625,-111 625,-111 625,-117 619,-123 613,-123 613,-123 443,-123 443,-123 437,-123 431,-117 431,-111 431,-111 431,-44 431,-44 431,-38 437,-32 443,-32"/>
<text text-anchor="middle" x="528" y="-107.8" font-family="Arial" font-size="14.00" fill="#000000">dtb_walker_cache </text>
<text text-anchor="middle" x="528" y="-92.8" font-family="Arial" font-size="14.00" fill="#000000">: PageTableWalkerCache</text>
</a>
</g>
</g>
<g id="clust88" class="cluster">
<title>cluster_system_cpu_icache</title>
<g id="a_clust88"><a xlink:title="addr_ranges=0:18446744073709551615&#10;assoc=2&#10;clk_domain=system.cpu_clk_domain&#10;clusivity=mostly_incl&#10;compressor=Null&#10;data_latency=2&#10;default_p_state=UNDEFINED&#10;demand_mshr_reserve=1&#10;eventq_index=0&#10;is_read_only=true&#10;max_miss_count=0&#10;mshrs=4&#10;p_state_clk_gate_bins=20&#10;p_state_clk_gate_max=1000000000000&#10;p_state_clk_gate_min=1000&#10;power_model=&#10;prefetch_on_access=false&#10;prefetcher=Null&#10;&#13;eplacement_policy=system.cpu.icache.replacement_policy&#10;&#13;esponse_latency=2&#10;sequential_access=false&#10;size=32768&#10;system=system&#10;tag_latency=2&#10;tags=system.cpu.icache.tags&#10;tgts_per_mshr=20&#10;warmup_percentage=0&#10;write_allocator=Null&#10;write_buffers=8&#10;writeback_clean=true">
<path fill="#bab6ae" stroke="#000000" d="M645,-32C645,-32 815,-32 815,-32 821,-32 827,-38 827,-44 827,-44 827,-111 827,-111 827,-117 821,-123 815,-123 815,-123 645,-123 645,-123 639,-123 633,-117 633,-111 633,-111 633,-44 633,-44 633,-38 639,-32 645,-32"/>
<text text-anchor="middle" x="730" y="-107.8" font-family="Arial" font-size="14.00" fill="#000000">icache </text>
<text text-anchor="middle" x="730" y="-92.8" font-family="Arial" font-size="14.00" fill="#000000">: L1_ICache</text>
</a>
</g>
</g>
<g id="clust92" class="cluster">
<title>cluster_system_cpu_dcache</title>
<g id="a_clust92"><a xlink:title="addr_ranges=0:18446744073709551615&#10;assoc=2&#10;clk_domain=system.cpu_clk_domain&#10;clusivity=mostly_incl&#10;compressor=Null&#10;data_latency=2&#10;default_p_state=UNDEFINED&#10;demand_mshr_reserve=1&#10;eventq_index=0&#10;is_read_only=false&#10;max_miss_count=0&#10;mshrs=4&#10;p_state_clk_gate_bins=20&#10;p_state_clk_gate_max=1000000000000&#10;p_state_clk_gate_min=1000&#10;power_model=&#10;prefetch_on_access=false&#10;prefetcher=Null&#10;&#13;eplacement_policy=system.cpu.dcache.replacement_policy&#10;&#13;esponse_latency=2&#10;sequential_access=false&#10;size=65536&#10;system=system&#10;tag_latency=2&#10;tags=system.cpu.dcache.tags&#10;tgts_per_mshr=20&#10;warmup_percentage=0&#10;write_allocator=Null&#10;write_buffers=8&#10;writeback_clean=false">
<path fill="#bab6ae" stroke="#000000" d="M847,-32C847,-32 1017,-32 1017,-32 1023,-32 1029,-38 1029,-44 1029,-44 1029,-111 1029,-111 1029,-117 1023,-123 1017,-123 1017,-123 847,-123 847,-123 841,-123 835,-117 835,-111 835,-111 835,-44 835,-44 835,-38 841,-32 847,-32"/>
<text text-anchor="middle" x="932" y="-107.8" font-family="Arial" font-size="14.00" fill="#000000">dcache </text>
<text text-anchor="middle" x="932" y="-92.8" font-family="Arial" font-size="14.00" fill="#000000">: L1_DCache</text>
</a>
</g>
</g>
<!-- system_system_port -->
<g id="node1" class="node">
<title>system_system_port</title>
<path fill="#b6b8bc" stroke="#000000" d="M880,-493.5C880,-493.5 952,-493.5 952,-493.5 958,-493.5 964,-499.5 964,-505.5 964,-505.5 964,-517.5 964,-517.5 964,-523.5 958,-529.5 952,-529.5 952,-529.5 880,-529.5 880,-529.5 874,-529.5 868,-523.5 868,-517.5 868,-517.5 868,-505.5 868,-505.5 868,-499.5 874,-493.5 880,-493.5"/>
<text text-anchor="middle" x="916" y="-507.8" font-family="Arial" font-size="14.00" fill="#000000">system_port</text>
</g>
<!-- system_membus_slave -->
<g id="node3" class="node">
<title>system_membus_slave</title>
<path fill="#586070" stroke="#000000" d="M901,-362.5C901,-362.5 931,-362.5 931,-362.5 937,-362.5 943,-368.5 943,-374.5 943,-374.5 943,-386.5 943,-386.5 943,-392.5 937,-398.5 931,-398.5 931,-398.5 901,-398.5 901,-398.5 895,-398.5 889,-392.5 889,-386.5 889,-386.5 889,-374.5 889,-374.5 889,-368.5 895,-362.5 901,-362.5"/>
<text text-anchor="middle" x="916" y="-376.8" font-family="Arial" font-size="14.00" fill="#000000">slave</text>
</g>
<!-- system_system_port&#45;&gt;system_membus_slave -->
<g id="edge1" class="edge">
<title>system_system_port&#45;&gt;system_membus_slave</title>
<path fill="none" stroke="#000000" d="M916,-493.285C916,-471.3856 916,-434.3861 916,-408.7663"/>
<polygon fill="#000000" stroke="#000000" points="919.5001,-408.5603 916,-398.5603 912.5001,-408.5603 919.5001,-408.5603"/>
</g>
<!-- system_membus_master -->
<g id="node2" class="node">
<title>system_membus_master</title>
<path fill="#586070" stroke="#000000" d="M821.5,-362.5C821.5,-362.5 858.5,-362.5 858.5,-362.5 864.5,-362.5 870.5,-368.5 870.5,-374.5 870.5,-374.5 870.5,-386.5 870.5,-386.5 870.5,-392.5 864.5,-398.5 858.5,-398.5 858.5,-398.5 821.5,-398.5 821.5,-398.5 815.5,-398.5 809.5,-392.5 809.5,-386.5 809.5,-386.5 809.5,-374.5 809.5,-374.5 809.5,-368.5 815.5,-362.5 821.5,-362.5"/>
<text text-anchor="middle" x="840" y="-376.8" font-family="Arial" font-size="14.00" fill="#000000">master</text>
</g>
<!-- system_mem_ctrls_port -->
<g id="node4" class="node">
<title>system_mem_ctrls_port</title>
<path fill="#4b4746" stroke="#000000" d="M111,-171.5C111,-171.5 141,-171.5 141,-171.5 147,-171.5 153,-177.5 153,-183.5 153,-183.5 153,-195.5 153,-195.5 153,-201.5 147,-207.5 141,-207.5 141,-207.5 111,-207.5 111,-207.5 105,-207.5 99,-201.5 99,-195.5 99,-195.5 99,-183.5 99,-183.5 99,-177.5 105,-171.5 111,-171.5"/>
<text text-anchor="middle" x="126" y="-185.8" font-family="Arial" font-size="14.00" fill="#000000">port</text>
</g>
<!-- system_membus_master&#45;&gt;system_mem_ctrls_port -->
<g id="edge4" class="edge">
<title>system_membus_master&#45;&gt;system_mem_ctrls_port</title>
<path fill="none" stroke="#000000" d="M809.1341,-379.8345C682.2644,-376.9782 206.4228,-365.0302 181,-346 140.8837,-315.9709 129.8918,-254.4635 126.9661,-218.1413"/>
<polygon fill="#000000" stroke="#000000" points="130.4317,-217.4936 126.2938,-207.7402 123.4462,-217.9452 130.4317,-217.4936"/>
</g>
<!-- system_cpu_interrupts_int_slave -->
<g id="node8" class="node">
<title>system_cpu_interrupts_int_slave</title>
<path fill="#94918b" stroke="#000000" d="M672,-171.5C672,-171.5 722,-171.5 722,-171.5 728,-171.5 734,-177.5 734,-183.5 734,-183.5 734,-195.5 734,-195.5 734,-201.5 728,-207.5 722,-207.5 722,-207.5 672,-207.5 672,-207.5 666,-207.5 660,-201.5 660,-195.5 660,-195.5 660,-183.5 660,-183.5 660,-177.5 666,-171.5 672,-171.5"/>
<text text-anchor="middle" x="697" y="-185.8" font-family="Arial" font-size="14.00" fill="#000000">int_slave</text>
</g>
<!-- system_membus_master&#45;&gt;system_cpu_interrupts_int_slave -->
<g id="edge3" class="edge">
<title>system_membus_master&#45;&gt;system_cpu_interrupts_int_slave</title>
<path fill="none" stroke="#000000" d="M809.3463,-376.9542C787.9833,-372.9172 760.3161,-364.311 743,-346 709.64,-310.7232 700.3315,-252.5051 697.8218,-217.8955"/>
<polygon fill="#000000" stroke="#000000" points="701.295,-217.3287 697.224,-207.5473 694.3066,-217.7325 701.295,-217.3287"/>
</g>
<!-- system_cpu_interrupts_pio -->
<g id="node10" class="node">
<title>system_cpu_interrupts_pio</title>
<path fill="#94918b" stroke="#000000" d="M600,-171.5C600,-171.5 630,-171.5 630,-171.5 636,-171.5 642,-177.5 642,-183.5 642,-183.5 642,-195.5 642,-195.5 642,-201.5 636,-207.5 630,-207.5 630,-207.5 600,-207.5 600,-207.5 594,-207.5 588,-201.5 588,-195.5 588,-195.5 588,-183.5 588,-183.5 588,-177.5 594,-171.5 600,-171.5"/>
<text text-anchor="middle" x="615" y="-185.8" font-family="Arial" font-size="14.00" fill="#000000">pio</text>
</g>
<!-- system_membus_master&#45;&gt;system_cpu_interrupts_pio -->
<g id="edge2" class="edge">
<title>system_membus_master&#45;&gt;system_cpu_interrupts_pio</title>
<path fill="none" stroke="#000000" d="M809.212,-378.904C761.5962,-375.7934 673.2473,-367.2564 651,-346 616.1082,-312.6623 611.9421,-252.859 612.9031,-217.6207"/>
<polygon fill="#000000" stroke="#000000" points="616.4041,-217.6711 613.3377,-207.5297 609.4106,-217.3699 616.4041,-217.6711"/>
</g>
<!-- system_cpu_interrupts_int_master -->
<g id="node9" class="node">
<title>system_cpu_interrupts_int_master</title>
<path fill="#94918b" stroke="#000000" d="M764,-171.5C764,-171.5 824,-171.5 824,-171.5 830,-171.5 836,-177.5 836,-183.5 836,-183.5 836,-195.5 836,-195.5 836,-201.5 830,-207.5 824,-207.5 824,-207.5 764,-207.5 764,-207.5 758,-207.5 752,-201.5 752,-195.5 752,-195.5 752,-183.5 752,-183.5 752,-177.5 758,-171.5 764,-171.5"/>
<text text-anchor="middle" x="794" y="-185.8" font-family="Arial" font-size="14.00" fill="#000000">int_master</text>
</g>
<!-- system_membus_slave&#45;&gt;system_cpu_interrupts_int_master -->
<g id="edge9" class="edge">
<title>system_membus_slave&#45;&gt;system_cpu_interrupts_int_master</title>
<path fill="none" stroke="#000000" d="M884.6935,-356.6063C883.1322,-355.6849 881.5632,-354.8102 880,-354 870.0174,-348.8264 864.1678,-353.727 856,-346 815.6634,-307.8401 801.0492,-240.117 796.1948,-207.7336"/>
<polygon fill="#000000" stroke="#000000" points="883.161,-359.7832 893.4597,-362.2707 886.9601,-353.9038 883.161,-359.7832"/>
</g>
<!-- system_cpu_itb_walker_cache_mem_side -->
<g id="node11" class="node">
<title>system_cpu_itb_walker_cache_mem_side</title>
<path fill="#94918b" stroke="#000000" d="M343,-40.5C343,-40.5 403,-40.5 403,-40.5 409,-40.5 415,-46.5 415,-52.5 415,-52.5 415,-64.5 415,-64.5 415,-70.5 409,-76.5 403,-76.5 403,-76.5 343,-76.5 343,-76.5 337,-76.5 331,-70.5 331,-64.5 331,-64.5 331,-52.5 331,-52.5 331,-46.5 337,-40.5 343,-40.5"/>
<text text-anchor="middle" x="373" y="-54.8" font-family="Arial" font-size="14.00" fill="#000000">mem_side</text>
</g>
<!-- system_membus_slave&#45;&gt;system_cpu_itb_walker_cache_mem_side -->
<g id="edge7" class="edge">
<title>system_membus_slave&#45;&gt;system_cpu_itb_walker_cache_mem_side</title>
<path fill="none" stroke="#000000" d="M953.0324,-373.6227C981.1093,-367.5671 1016.3043,-357.8731 1025,-346 1037.5394,-328.8785 1039.5999,-170.4021 1025,-155 979.2238,-106.7087 486.5156,-152.7556 427,-123 407.0142,-113.0078 391.6292,-91.9205 382.4845,-76.5693"/>
<polygon fill="#000000" stroke="#000000" points="952.1544,-370.2301 943.0725,-375.6863 953.5747,-377.0846 952.1544,-370.2301"/>
</g>
<!-- system_cpu_dtb_walker_cache_mem_side -->
<g id="node14" class="node">
<title>system_cpu_dtb_walker_cache_mem_side</title>
<path fill="#94918b" stroke="#000000" d="M545,-40.5C545,-40.5 605,-40.5 605,-40.5 611,-40.5 617,-46.5 617,-52.5 617,-52.5 617,-64.5 617,-64.5 617,-70.5 611,-76.5 605,-76.5 605,-76.5 545,-76.5 545,-76.5 539,-76.5 533,-70.5 533,-64.5 533,-64.5 533,-52.5 533,-52.5 533,-46.5 539,-40.5 545,-40.5"/>
<text text-anchor="middle" x="575" y="-54.8" font-family="Arial" font-size="14.00" fill="#000000">mem_side</text>
</g>
<!-- system_membus_slave&#45;&gt;system_cpu_dtb_walker_cache_mem_side -->
<g id="edge8" class="edge">
<title>system_membus_slave&#45;&gt;system_cpu_dtb_walker_cache_mem_side</title>
<path fill="none" stroke="#000000" d="M952.9634,-375.4752C986.4105,-370.0811 1032.0585,-360.3104 1043,-346 1055.8902,-329.141 1057.4166,-170.5739 1043,-155 980.3167,-87.2846 711.0396,-165.2382 629,-123 609.2637,-112.8388 593.9272,-92.0052 584.7235,-76.755"/>
<polygon fill="#000000" stroke="#000000" points="952.376,-372.0243 943.027,-377.0089 953.4439,-378.9424 952.376,-372.0243"/>
</g>
<!-- system_cpu_icache_mem_side -->
<g id="node16" class="node">
<title>system_cpu_icache_mem_side</title>
<path fill="#94918b" stroke="#000000" d="M747,-40.5C747,-40.5 807,-40.5 807,-40.5 813,-40.5 819,-46.5 819,-52.5 819,-52.5 819,-64.5 819,-64.5 819,-70.5 813,-76.5 807,-76.5 807,-76.5 747,-76.5 747,-76.5 741,-76.5 735,-70.5 735,-64.5 735,-64.5 735,-52.5 735,-52.5 735,-46.5 741,-40.5 747,-40.5"/>
<text text-anchor="middle" x="777" y="-54.8" font-family="Arial" font-size="14.00" fill="#000000">mem_side</text>
</g>
<!-- system_membus_slave&#45;&gt;system_cpu_icache_mem_side -->
<g id="edge5" class="edge">
<title>system_membus_slave&#45;&gt;system_cpu_icache_mem_side</title>
<path fill="none" stroke="#000000" d="M953.2608,-376.9658C992.2211,-372.409 1049.5487,-362.9738 1063,-346 1076.181,-329.3674 1076.9435,-170.9988 1063,-155 1028.806,-115.7659 876.5367,-148.1983 831,-123 811.7048,-112.3228 796.3844,-91.8008 787.063,-76.7625"/>
<polygon fill="#000000" stroke="#000000" points="952.8528,-373.4895 943.3005,-378.0724 953.6259,-380.4467 952.8528,-373.4895"/>
</g>
<!-- system_cpu_dcache_mem_side -->
<g id="node18" class="node">
<title>system_cpu_dcache_mem_side</title>
<path fill="#94918b" stroke="#000000" d="M949,-40.5C949,-40.5 1009,-40.5 1009,-40.5 1015,-40.5 1021,-46.5 1021,-52.5 1021,-52.5 1021,-64.5 1021,-64.5 1021,-70.5 1015,-76.5 1009,-76.5 1009,-76.5 949,-76.5 949,-76.5 943,-76.5 937,-70.5 937,-64.5 937,-64.5 937,-52.5 937,-52.5 937,-46.5 943,-40.5 949,-40.5"/>
<text text-anchor="middle" x="979" y="-54.8" font-family="Arial" font-size="14.00" fill="#000000">mem_side</text>
</g>
<!-- system_membus_slave&#45;&gt;system_cpu_dcache_mem_side -->
<g id="edge6" class="edge">
<title>system_membus_slave&#45;&gt;system_cpu_dcache_mem_side</title>
<path fill="none" stroke="#000000" d="M953.1536,-378.1534C997.2787,-374.5013 1066.9457,-365.7099 1083,-346 1136.6107,-280.182 1116.946,-232.8061 1083,-155 1068.1271,-120.9105 1034.6164,-93.4621 1009.6291,-76.6806"/>
<polygon fill="#000000" stroke="#000000" points="952.7737,-374.6722 943.0745,-378.9356 953.3154,-381.6512 952.7737,-374.6722"/>
</g>
<!-- system_cpu_icache_port -->
<g id="node5" class="node">
<title>system_cpu_icache_port</title>
<path fill="#959ead" stroke="#000000" d="M374,-171.5C374,-171.5 442,-171.5 442,-171.5 448,-171.5 454,-177.5 454,-183.5 454,-183.5 454,-195.5 454,-195.5 454,-201.5 448,-207.5 442,-207.5 442,-207.5 374,-207.5 374,-207.5 368,-207.5 362,-201.5 362,-195.5 362,-195.5 362,-183.5 362,-183.5 362,-177.5 368,-171.5 374,-171.5"/>
<text text-anchor="middle" x="408" y="-185.8" font-family="Arial" font-size="14.00" fill="#000000">icache_port</text>
</g>
<!-- system_cpu_icache_cpu_side -->
<g id="node17" class="node">
<title>system_cpu_icache_cpu_side</title>
<path fill="#94918b" stroke="#000000" d="M653,-40.5C653,-40.5 705,-40.5 705,-40.5 711,-40.5 717,-46.5 717,-52.5 717,-52.5 717,-64.5 717,-64.5 717,-70.5 711,-76.5 705,-76.5 705,-76.5 653,-76.5 653,-76.5 647,-76.5 641,-70.5 641,-64.5 641,-64.5 641,-52.5 641,-52.5 641,-46.5 647,-40.5 653,-40.5"/>
<text text-anchor="middle" x="679" y="-54.8" font-family="Arial" font-size="14.00" fill="#000000">cpu_side</text>
</g>
<!-- system_cpu_icache_port&#45;&gt;system_cpu_icache_cpu_side -->
<g id="edge10" class="edge">
<title>system_cpu_icache_port&#45;&gt;system_cpu_icache_cpu_side</title>
<path fill="none" stroke="#000000" d="M432.4234,-171.4627C441.6129,-165.4237 452.4081,-159.1733 463,-155 532.9055,-127.4564 564.98,-162.3303 629,-123 643.7131,-113.9611 655.7495,-98.9098 664.3231,-85.6196"/>
<polygon fill="#000000" stroke="#000000" points="667.4847,-87.157 669.6958,-76.7954 661.5057,-83.5166 667.4847,-87.157"/>
</g>
<!-- system_cpu_dcache_port -->
<g id="node6" class="node">
<title>system_cpu_dcache_port</title>
<path fill="#959ead" stroke="#000000" d="M484,-171.5C484,-171.5 558,-171.5 558,-171.5 564,-171.5 570,-177.5 570,-183.5 570,-183.5 570,-195.5 570,-195.5 570,-201.5 564,-207.5 558,-207.5 558,-207.5 484,-207.5 484,-207.5 478,-207.5 472,-201.5 472,-195.5 472,-195.5 472,-183.5 472,-183.5 472,-177.5 478,-171.5 484,-171.5"/>
<text text-anchor="middle" x="521" y="-185.8" font-family="Arial" font-size="14.00" fill="#000000">dcache_port</text>
</g>
<!-- system_cpu_dcache_cpu_side -->
<g id="node19" class="node">
<title>system_cpu_dcache_cpu_side</title>
<path fill="#94918b" stroke="#000000" d="M855,-40.5C855,-40.5 907,-40.5 907,-40.5 913,-40.5 919,-46.5 919,-52.5 919,-52.5 919,-64.5 919,-64.5 919,-70.5 913,-76.5 907,-76.5 907,-76.5 855,-76.5 855,-76.5 849,-76.5 843,-70.5 843,-64.5 843,-64.5 843,-52.5 843,-52.5 843,-46.5 849,-40.5 855,-40.5"/>
<text text-anchor="middle" x="881" y="-54.8" font-family="Arial" font-size="14.00" fill="#000000">cpu_side</text>
</g>
<!-- system_cpu_dcache_port&#45;&gt;system_cpu_dcache_cpu_side -->
<g id="edge11" class="edge">
<title>system_cpu_dcache_port&#45;&gt;system_cpu_dcache_cpu_side</title>
<path fill="none" stroke="#000000" d="M544.7361,-171.4391C554.0254,-165.246 565.0646,-158.8995 576,-155 683.5866,-116.6355 731.7682,-179.5665 831,-123 846.2016,-114.3344 858.3726,-99.0186 866.8991,-85.4858"/>
<polygon fill="#000000" stroke="#000000" points="870.1326,-86.8941 872.2123,-76.5054 864.108,-83.3297 870.1326,-86.8941"/>
</g>
<!-- system_cpu_dtb_walker_port -->
<g id="node7" class="node">
<title>system_cpu_dtb_walker_port</title>
<path fill="#7f7c77" stroke="#000000" d="M880,-171.5C880,-171.5 910,-171.5 910,-171.5 916,-171.5 922,-177.5 922,-183.5 922,-183.5 922,-195.5 922,-195.5 922,-201.5 916,-207.5 910,-207.5 910,-207.5 880,-207.5 880,-207.5 874,-207.5 868,-201.5 868,-195.5 868,-195.5 868,-183.5 868,-183.5 868,-177.5 874,-171.5 880,-171.5"/>
<text text-anchor="middle" x="895" y="-185.8" font-family="Arial" font-size="14.00" fill="#000000">port</text>
</g>
<!-- system_cpu_dtb_walker_cache_cpu_side -->
<g id="node15" class="node">
<title>system_cpu_dtb_walker_cache_cpu_side</title>
<path fill="#94918b" stroke="#000000" d="M451,-40.5C451,-40.5 503,-40.5 503,-40.5 509,-40.5 515,-46.5 515,-52.5 515,-52.5 515,-64.5 515,-64.5 515,-70.5 509,-76.5 503,-76.5 503,-76.5 451,-76.5 451,-76.5 445,-76.5 439,-70.5 439,-64.5 439,-64.5 439,-52.5 439,-52.5 439,-46.5 445,-40.5 451,-40.5"/>
<text text-anchor="middle" x="477" y="-54.8" font-family="Arial" font-size="14.00" fill="#000000">cpu_side</text>
</g>
<!-- system_cpu_dtb_walker_port&#45;&gt;system_cpu_dtb_walker_cache_cpu_side -->
<g id="edge12" class="edge">
<title>system_cpu_dtb_walker_port&#45;&gt;system_cpu_dtb_walker_cache_cpu_side</title>
<path fill="none" stroke="#000000" d="M875.3648,-171.438C867.4304,-165.1656 857.8304,-158.7657 848,-155 712.8745,-103.2373 649.5911,-194.869 524,-123 509.1483,-114.5012 497.6878,-99.1912 489.803,-85.6198"/>
<polygon fill="#000000" stroke="#000000" points="492.7602,-83.7307 484.9178,-76.607 486.6061,-87.0665 492.7602,-83.7307"/>
</g>
<!-- system_cpu_itb_walker_cache_cpu_side -->
<g id="node12" class="node">
<title>system_cpu_itb_walker_cache_cpu_side</title>
<path fill="#94918b" stroke="#000000" d="M249,-40.5C249,-40.5 301,-40.5 301,-40.5 307,-40.5 313,-46.5 313,-52.5 313,-52.5 313,-64.5 313,-64.5 313,-70.5 307,-76.5 301,-76.5 301,-76.5 249,-76.5 249,-76.5 243,-76.5 237,-70.5 237,-64.5 237,-64.5 237,-52.5 237,-52.5 237,-46.5 243,-40.5 249,-40.5"/>
<text text-anchor="middle" x="275" y="-54.8" font-family="Arial" font-size="14.00" fill="#000000">cpu_side</text>
</g>
<!-- system_cpu_itb_walker_port -->
<g id="node13" class="node">
<title>system_cpu_itb_walker_port</title>
<path fill="#7f7c77" stroke="#000000" d="M260,-171.5C260,-171.5 290,-171.5 290,-171.5 296,-171.5 302,-177.5 302,-183.5 302,-183.5 302,-195.5 302,-195.5 302,-201.5 296,-207.5 290,-207.5 290,-207.5 260,-207.5 260,-207.5 254,-207.5 248,-201.5 248,-195.5 248,-195.5 248,-183.5 248,-183.5 248,-177.5 254,-171.5 260,-171.5"/>
<text text-anchor="middle" x="275" y="-185.8" font-family="Arial" font-size="14.00" fill="#000000">port</text>
</g>
<!-- system_cpu_itb_walker_port&#45;&gt;system_cpu_itb_walker_cache_cpu_side -->
<g id="edge13" class="edge">
<title>system_cpu_itb_walker_port&#45;&gt;system_cpu_itb_walker_cache_cpu_side</title>
<path fill="none" stroke="#000000" d="M275,-171.285C275,-149.3856 275,-112.3861 275,-86.7663"/>
<polygon fill="#000000" stroke="#000000" points="278.5001,-86.5603 275,-76.5603 271.5001,-86.5603 278.5001,-86.5603"/>
</g>
</g>
</svg>
